<?xml version="1.0" standalone="no"?>
<!DOCTYPE svg PUBLIC "-//W3C//DTD SVG 1.1//EN"
"http://www.w3.org/Graphics/SVG/1.1/DTD/svg11.dtd">

<svg width="112" height="356" view_box="0 0 112 356"
xmlns="http://www.w3.org/2000/svg"
xmlns:link="http://www.w3.org/1999/xlink">\n\n<desc>Généré par Mocodo 2.3.7 le Thu, 02 Dec 2021 02:07:54</desc>

<rect id="frame" x="0" y="0" width="112" height="356" fill="#f7f7f7" stroke="none" stroke-width="0"/>

<!-- Association POSSEDE -->
<line x1="56" y1="94" x2="56" y2="229" stroke="#7fbc41" stroke-width="2"/>
<text x="61.0" y="196" fill="#c51b7d" font-family="Verdana" font-size="12">1,1</text>
<line x1="56" y1="313" x2="56" y2="229" stroke="#7fbc41" stroke-width="2"/>
<text x="61.0" y="271" fill="#c51b7d" font-family="Verdana" font-size="12">0,N</text>
<g id="association-POSSEDE">
	<path d="M 79 204 a 14 14 90 0 1 14 14 V 229 h -74 V 218 a 14 14 90 0 1 14 -14" fill="#b8e186" stroke="#b8e186" stroke-width="0"/>
	<path d="M 93 229.0 v 11 a 14 14 90 0 1 -14 14 H 33 a 14 14 90 0 1 -14 -14 V 229.0 H 74" fill="#e6f5d0" stroke="#e6f5d0" stroke-width="0"/>
	<rect x="19" y="204" width="74" height="50" fill="none" rx="14" stroke="#7fbc41" stroke-width="2"/>
	<line x1="19" y1="229" x2="93" y2="229" stroke="#7fbc41" stroke-width="1"/>
	<text x="26" y="221.7" fill="#000000" font-family="Verdana" font-size="12">POSSEDE</text>
</g>

<!-- Entity BOUTEILLE -->
<g id="entity-BOUTEILLE">
	<g id="frame-BOUTEILLE">
		<rect x="11" y="9" width="90" height="25" fill="#f1b6da" stroke="#f1b6da" stroke-width="0"/>
		<rect x="11" y="34.0" width="90" height="145" fill="#fde0ef" stroke="#fde0ef" stroke-width="0"/>
		<rect x="11" y="9" width="90" height="170" fill="none" stroke="#de77ae" stroke-width="2"/>
		<line x1="11" y1="34" x2="101" y2="34" stroke="#de77ae" stroke-width="1"/>
	</g>
	<text x="21" y="26.7" fill="#000000" font-family="Verdana" font-size="12">BOUTEILLE</text>
	<text x="16" y="51.7" fill="#000000" font-family="Verdana" font-size="12">id</text>
	<line x1="16" y1="54" x2="28" y2="54" stroke="#000000" stroke-width="1"/>
	<text x="16" y="68.7" fill="#000000" font-family="Verdana" font-size="12">nom</text>
	<text x="16" y="85.7" fill="#000000" font-family="Verdana" font-size="12">type</text>
	<text x="16" y="102.8" fill="#000000" font-family="Verdana" font-size="12">millésime</text>
	<text x="16" y="119.8" fill="#000000" font-family="Verdana" font-size="12">stock</text>
	<text x="16" y="136.8" fill="#000000" font-family="Verdana" font-size="12">commentaire</text>
	<text x="16" y="153.8" fill="#000000" font-family="Verdana" font-size="12">note</text>
	<text x="16" y="170.8" fill="#000000" font-family="Verdana" font-size="12">étagère</text>
</g>

<!-- Entity APPELLATION -->
<g id="entity-APPELLATION">
	<g id="frame-APPELLATION">
		<rect x="9" y="279" width="94" height="25" fill="#f1b6da" stroke="#f1b6da" stroke-width="0"/>
		<rect x="9" y="304.0" width="94" height="43" fill="#fde0ef" stroke="#fde0ef" stroke-width="0"/>
		<rect x="9" y="279" width="94" height="68" fill="none" stroke="#de77ae" stroke-width="2"/>
		<line x1="9" y1="304" x2="103" y2="304" stroke="#de77ae" stroke-width="1"/>
	</g>
	<text x="14" y="296.7" fill="#000000" font-family="Verdana" font-size="12">APPELLATION</text>
	<text x="14" y="321.8" fill="#000000" font-family="Verdana" font-size="12">id</text>
	<line x1="14" y1="324" x2="26" y2="324" stroke="#000000" stroke-width="1"/>
	<text x="14" y="338.8" fill="#000000" font-family="Verdana" font-size="12">libellé</text>
</g>
</svg>